<mxfile host="app.diagrams.net" modified="2024-04-25T01:55:04.975Z" agent="Mozilla/5.0 (Windows NT 10.0; Win64; x64) AppleWebKit/537.36 (KHTML, like Gecko) Chrome/124.0.0.0 Safari/537.36 Edg/124.0.0.0" etag="0STGfrFn6d7Da9jA59H2" version="23.1.5" type="github">
  <diagram name="Page-1" id="9zuESjNG0WmEuEi5x5Ge">
    <mxGraphModel dx="5209" dy="2522" grid="1" gridSize="10" guides="1" tooltips="1" connect="1" arrows="1" fold="1" page="1" pageScale="1" pageWidth="827" pageHeight="1169" math="0" shadow="0">
      <root>
        <mxCell id="0" />
        <mxCell id="1" parent="0" />
        <mxCell id="MSwfIHUlSuBdwuB2zBwW-1" value="API" style="ellipse;shape=cloud;whiteSpace=wrap;html=1;fillColor=#dae8fc;strokeColor=#6c8ebf;" vertex="1" parent="1">
          <mxGeometry x="260" y="200" width="120" height="80" as="geometry" />
        </mxCell>
        <mxCell id="MSwfIHUlSuBdwuB2zBwW-53" style="edgeStyle=orthogonalEdgeStyle;rounded=0;orthogonalLoop=1;jettySize=auto;html=1;exitX=1;exitY=1;exitDx=0;exitDy=-15;exitPerimeter=0;entryX=0.25;entryY=0;entryDx=0;entryDy=0;dashed=1;fillColor=#e1d5e7;strokeColor=#9673a6;" edge="1" parent="1" source="MSwfIHUlSuBdwuB2zBwW-8" target="MSwfIHUlSuBdwuB2zBwW-29">
          <mxGeometry relative="1" as="geometry">
            <mxPoint x="660" y="390" as="targetPoint" />
          </mxGeometry>
        </mxCell>
        <mxCell id="MSwfIHUlSuBdwuB2zBwW-54" style="edgeStyle=orthogonalEdgeStyle;rounded=0;orthogonalLoop=1;jettySize=auto;html=1;exitX=1;exitY=0.5;exitDx=0;exitDy=0;exitPerimeter=0;entryX=0.5;entryY=0;entryDx=0;entryDy=0;fillColor=#ffe6cc;strokeColor=#d79b00;dashed=1;" edge="1" parent="1" source="MSwfIHUlSuBdwuB2zBwW-8" target="MSwfIHUlSuBdwuB2zBwW-33">
          <mxGeometry relative="1" as="geometry" />
        </mxCell>
        <mxCell id="MSwfIHUlSuBdwuB2zBwW-8" value="Raw articles" style="shape=cylinder3;whiteSpace=wrap;html=1;boundedLbl=1;backgroundOutline=1;size=15;fillColor=#d5e8d4;strokeColor=#82b366;" vertex="1" parent="1">
          <mxGeometry x="490" y="200" width="60" height="80" as="geometry" />
        </mxCell>
        <mxCell id="MSwfIHUlSuBdwuB2zBwW-16" style="edgeStyle=orthogonalEdgeStyle;rounded=0;orthogonalLoop=1;jettySize=auto;html=1;exitX=1;exitY=0.5;exitDx=0;exitDy=0;entryX=0;entryY=0.5;entryDx=0;entryDy=0;fillColor=#dae8fc;strokeColor=#6c8ebf;" edge="1" parent="1" source="MSwfIHUlSuBdwuB2zBwW-10" target="MSwfIHUlSuBdwuB2zBwW-11">
          <mxGeometry relative="1" as="geometry" />
        </mxCell>
        <mxCell id="MSwfIHUlSuBdwuB2zBwW-17" style="edgeStyle=orthogonalEdgeStyle;rounded=0;orthogonalLoop=1;jettySize=auto;html=1;exitX=1;exitY=0.5;exitDx=0;exitDy=0;entryX=0;entryY=0.5;entryDx=0;entryDy=0;fillColor=#dae8fc;strokeColor=#6c8ebf;" edge="1" parent="1" source="MSwfIHUlSuBdwuB2zBwW-10" target="MSwfIHUlSuBdwuB2zBwW-12">
          <mxGeometry relative="1" as="geometry" />
        </mxCell>
        <mxCell id="MSwfIHUlSuBdwuB2zBwW-10" value="Fetch data" style="rounded=1;whiteSpace=wrap;html=1;fillColor=#dae8fc;strokeColor=#6c8ebf;" vertex="1" parent="1">
          <mxGeometry x="60" y="400" width="120" height="60" as="geometry" />
        </mxCell>
        <mxCell id="MSwfIHUlSuBdwuB2zBwW-14" value="" style="edgeStyle=orthogonalEdgeStyle;rounded=0;orthogonalLoop=1;jettySize=auto;html=1;entryX=0.31;entryY=0.8;entryDx=0;entryDy=0;entryPerimeter=0;exitX=0.314;exitY=0.021;exitDx=0;exitDy=0;exitPerimeter=0;dashed=1;fillColor=#dae8fc;strokeColor=#6c8ebf;" edge="1" parent="1" source="MSwfIHUlSuBdwuB2zBwW-11" target="MSwfIHUlSuBdwuB2zBwW-1">
          <mxGeometry relative="1" as="geometry" />
        </mxCell>
        <mxCell id="MSwfIHUlSuBdwuB2zBwW-19" value="" style="edgeStyle=orthogonalEdgeStyle;rounded=0;orthogonalLoop=1;jettySize=auto;html=1;fillColor=#dae8fc;strokeColor=#6c8ebf;" edge="1" parent="1" source="MSwfIHUlSuBdwuB2zBwW-11" target="MSwfIHUlSuBdwuB2zBwW-18">
          <mxGeometry relative="1" as="geometry" />
        </mxCell>
        <mxCell id="MSwfIHUlSuBdwuB2zBwW-11" value="News articles" style="shape=process;whiteSpace=wrap;html=1;backgroundOutline=1;fillColor=#dae8fc;strokeColor=#6c8ebf;" vertex="1" parent="1">
          <mxGeometry x="260" y="350" width="120" height="60" as="geometry" />
        </mxCell>
        <mxCell id="MSwfIHUlSuBdwuB2zBwW-15" value="" style="edgeStyle=orthogonalEdgeStyle;rounded=0;orthogonalLoop=1;jettySize=auto;html=1;exitX=0.25;exitY=1;exitDx=0;exitDy=0;entryX=0.25;entryY=0.25;entryDx=0;entryDy=0;entryPerimeter=0;dashed=1;fillColor=#dae8fc;strokeColor=#6c8ebf;" edge="1" parent="1" source="MSwfIHUlSuBdwuB2zBwW-12" target="MSwfIHUlSuBdwuB2zBwW-13">
          <mxGeometry relative="1" as="geometry" />
        </mxCell>
        <mxCell id="MSwfIHUlSuBdwuB2zBwW-22" value="" style="edgeStyle=orthogonalEdgeStyle;rounded=0;orthogonalLoop=1;jettySize=auto;html=1;fillColor=#dae8fc;strokeColor=#6c8ebf;" edge="1" parent="1" source="MSwfIHUlSuBdwuB2zBwW-12" target="MSwfIHUlSuBdwuB2zBwW-21">
          <mxGeometry relative="1" as="geometry" />
        </mxCell>
        <mxCell id="MSwfIHUlSuBdwuB2zBwW-12" value="Stock prices" style="shape=process;whiteSpace=wrap;html=1;backgroundOutline=1;fillColor=#dae8fc;strokeColor=#6c8ebf;" vertex="1" parent="1">
          <mxGeometry x="260" y="450" width="120" height="60" as="geometry" />
        </mxCell>
        <mxCell id="MSwfIHUlSuBdwuB2zBwW-27" style="edgeStyle=orthogonalEdgeStyle;rounded=0;orthogonalLoop=1;jettySize=auto;html=1;exitX=0.753;exitY=0.206;exitDx=0;exitDy=0;exitPerimeter=0;entryX=0.75;entryY=1;entryDx=0;entryDy=0;dashed=1;fillColor=#dae8fc;strokeColor=#6c8ebf;" edge="1" parent="1" source="MSwfIHUlSuBdwuB2zBwW-13" target="MSwfIHUlSuBdwuB2zBwW-12">
          <mxGeometry relative="1" as="geometry" />
        </mxCell>
        <mxCell id="MSwfIHUlSuBdwuB2zBwW-13" value="API" style="ellipse;shape=cloud;whiteSpace=wrap;html=1;fillColor=#dae8fc;strokeColor=#6c8ebf;" vertex="1" parent="1">
          <mxGeometry x="260" y="590" width="120" height="80" as="geometry" />
        </mxCell>
        <mxCell id="MSwfIHUlSuBdwuB2zBwW-23" value="" style="edgeStyle=orthogonalEdgeStyle;rounded=0;orthogonalLoop=1;jettySize=auto;html=1;fillColor=#d5e8d4;strokeColor=#82b366;" edge="1" parent="1" source="MSwfIHUlSuBdwuB2zBwW-18" target="MSwfIHUlSuBdwuB2zBwW-8">
          <mxGeometry relative="1" as="geometry" />
        </mxCell>
        <mxCell id="MSwfIHUlSuBdwuB2zBwW-56" style="edgeStyle=orthogonalEdgeStyle;rounded=0;orthogonalLoop=1;jettySize=auto;html=1;exitX=0.75;exitY=1;exitDx=0;exitDy=0;fillColor=#d5e8d4;strokeColor=#82b366;" edge="1" parent="1" source="MSwfIHUlSuBdwuB2zBwW-18" target="MSwfIHUlSuBdwuB2zBwW-29">
          <mxGeometry relative="1" as="geometry" />
        </mxCell>
        <mxCell id="MSwfIHUlSuBdwuB2zBwW-18" value="Store articles in DB" style="whiteSpace=wrap;html=1;fillColor=#d5e8d4;strokeColor=#82b366;" vertex="1" parent="1">
          <mxGeometry x="460" y="350" width="120" height="60" as="geometry" />
        </mxCell>
        <mxCell id="MSwfIHUlSuBdwuB2zBwW-52" style="edgeStyle=orthogonalEdgeStyle;rounded=0;orthogonalLoop=1;jettySize=auto;html=1;exitX=1;exitY=0;exitDx=0;exitDy=27.5;exitPerimeter=0;entryX=0.25;entryY=1;entryDx=0;entryDy=0;dashed=1;fillColor=#e1d5e7;strokeColor=#9673a6;" edge="1" parent="1" source="MSwfIHUlSuBdwuB2zBwW-20" target="MSwfIHUlSuBdwuB2zBwW-29">
          <mxGeometry relative="1" as="geometry" />
        </mxCell>
        <mxCell id="MSwfIHUlSuBdwuB2zBwW-55" style="edgeStyle=orthogonalEdgeStyle;rounded=0;orthogonalLoop=1;jettySize=auto;html=1;exitX=1;exitY=0;exitDx=0;exitDy=52.5;exitPerimeter=0;fillColor=#ffe6cc;strokeColor=#d79b00;dashed=1;" edge="1" parent="1" source="MSwfIHUlSuBdwuB2zBwW-20" target="MSwfIHUlSuBdwuB2zBwW-33">
          <mxGeometry relative="1" as="geometry" />
        </mxCell>
        <mxCell id="MSwfIHUlSuBdwuB2zBwW-20" value="Raw prices" style="shape=cylinder3;whiteSpace=wrap;html=1;boundedLbl=1;backgroundOutline=1;size=15;fillColor=#d5e8d4;strokeColor=#82b366;" vertex="1" parent="1">
          <mxGeometry x="490" y="590" width="60" height="80" as="geometry" />
        </mxCell>
        <mxCell id="MSwfIHUlSuBdwuB2zBwW-24" value="" style="edgeStyle=orthogonalEdgeStyle;rounded=0;orthogonalLoop=1;jettySize=auto;html=1;fillColor=#d5e8d4;strokeColor=#82b366;" edge="1" parent="1" source="MSwfIHUlSuBdwuB2zBwW-21" target="MSwfIHUlSuBdwuB2zBwW-20">
          <mxGeometry relative="1" as="geometry" />
        </mxCell>
        <mxCell id="MSwfIHUlSuBdwuB2zBwW-58" style="edgeStyle=orthogonalEdgeStyle;rounded=0;orthogonalLoop=1;jettySize=auto;html=1;exitX=0.75;exitY=0;exitDx=0;exitDy=0;entryX=0;entryY=0.5;entryDx=0;entryDy=0;fillColor=#d5e8d4;strokeColor=#82b366;" edge="1" parent="1" source="MSwfIHUlSuBdwuB2zBwW-21" target="MSwfIHUlSuBdwuB2zBwW-29">
          <mxGeometry relative="1" as="geometry" />
        </mxCell>
        <mxCell id="MSwfIHUlSuBdwuB2zBwW-21" value="Store prices in DB" style="whiteSpace=wrap;html=1;fillColor=#d5e8d4;strokeColor=#82b366;" vertex="1" parent="1">
          <mxGeometry x="460" y="450" width="120" height="60" as="geometry" />
        </mxCell>
        <mxCell id="MSwfIHUlSuBdwuB2zBwW-26" style="edgeStyle=orthogonalEdgeStyle;rounded=0;orthogonalLoop=1;jettySize=auto;html=1;exitX=0.8;exitY=0.8;exitDx=0;exitDy=0;exitPerimeter=0;entryX=0.801;entryY=-0.011;entryDx=0;entryDy=0;entryPerimeter=0;dashed=1;fillColor=#dae8fc;strokeColor=#6c8ebf;" edge="1" parent="1" source="MSwfIHUlSuBdwuB2zBwW-1" target="MSwfIHUlSuBdwuB2zBwW-11">
          <mxGeometry relative="1" as="geometry">
            <mxPoint x="355" y="350" as="targetPoint" />
            <Array as="points">
              <mxPoint x="356" y="280" />
              <mxPoint x="356" y="280" />
            </Array>
          </mxGeometry>
        </mxCell>
        <mxCell id="MSwfIHUlSuBdwuB2zBwW-34" value="" style="edgeStyle=orthogonalEdgeStyle;rounded=0;orthogonalLoop=1;jettySize=auto;html=1;fillColor=#e1d5e7;strokeColor=#9673a6;" edge="1" parent="1" source="MSwfIHUlSuBdwuB2zBwW-29" target="MSwfIHUlSuBdwuB2zBwW-33">
          <mxGeometry relative="1" as="geometry" />
        </mxCell>
        <mxCell id="MSwfIHUlSuBdwuB2zBwW-38" style="edgeStyle=orthogonalEdgeStyle;rounded=0;orthogonalLoop=1;jettySize=auto;html=1;exitX=0.75;exitY=1;exitDx=0;exitDy=0;fillColor=#e1d5e7;strokeColor=#9673a6;entryX=0.5;entryY=0;entryDx=0;entryDy=0;dashed=1;" edge="1" parent="1" source="MSwfIHUlSuBdwuB2zBwW-29" target="MSwfIHUlSuBdwuB2zBwW-37">
          <mxGeometry relative="1" as="geometry" />
        </mxCell>
        <mxCell id="MSwfIHUlSuBdwuB2zBwW-29" value="Visualise data" style="rounded=1;whiteSpace=wrap;html=1;fillColor=#e1d5e7;strokeColor=#9673a6;" vertex="1" parent="1">
          <mxGeometry x="680" y="400" width="120" height="60" as="geometry" />
        </mxCell>
        <mxCell id="MSwfIHUlSuBdwuB2zBwW-70" value="" style="edgeStyle=orthogonalEdgeStyle;rounded=0;orthogonalLoop=1;jettySize=auto;html=1;fillColor=#ffe6cc;strokeColor=#d79b00;" edge="1" parent="1" source="MSwfIHUlSuBdwuB2zBwW-33" target="MSwfIHUlSuBdwuB2zBwW-69">
          <mxGeometry relative="1" as="geometry" />
        </mxCell>
        <mxCell id="MSwfIHUlSuBdwuB2zBwW-33" value="Data cleaning" style="shape=process;whiteSpace=wrap;html=1;backgroundOutline=1;rounded=1;fillColor=#ffe6cc;strokeColor=#d79b00;" vertex="1" parent="1">
          <mxGeometry x="880" y="400" width="120" height="60" as="geometry" />
        </mxCell>
        <mxCell id="MSwfIHUlSuBdwuB2zBwW-37" value="Jupyter&lt;br&gt;(eventually Dashboard)" style="shape=parallelogram;perimeter=parallelogramPerimeter;whiteSpace=wrap;html=1;fixedSize=1;fillColor=#e1d5e7;strokeColor=#9673a6;" vertex="1" parent="1">
          <mxGeometry x="747" y="510" width="120" height="60" as="geometry" />
        </mxCell>
        <mxCell id="MSwfIHUlSuBdwuB2zBwW-61" style="edgeStyle=orthogonalEdgeStyle;rounded=0;orthogonalLoop=1;jettySize=auto;html=1;exitX=1;exitY=0;exitDx=0;exitDy=52.5;exitPerimeter=0;entryX=0.5;entryY=0;entryDx=0;entryDy=0;fillColor=#f8cecc;strokeColor=#b85450;dashed=1;" edge="1" parent="1" source="MSwfIHUlSuBdwuB2zBwW-41" target="MSwfIHUlSuBdwuB2zBwW-49">
          <mxGeometry relative="1" as="geometry" />
        </mxCell>
        <mxCell id="MSwfIHUlSuBdwuB2zBwW-41" value="Cleaned articles" style="shape=cylinder3;whiteSpace=wrap;html=1;boundedLbl=1;backgroundOutline=1;size=15;fillColor=#fff2cc;strokeColor=#d6b656;" vertex="1" parent="1">
          <mxGeometry x="1070" y="200" width="60" height="80" as="geometry" />
        </mxCell>
        <mxCell id="MSwfIHUlSuBdwuB2zBwW-62" style="edgeStyle=orthogonalEdgeStyle;rounded=0;orthogonalLoop=1;jettySize=auto;html=1;entryX=0.5;entryY=1;entryDx=0;entryDy=0;fillColor=#f8cecc;strokeColor=#b85450;dashed=1;exitX=1;exitY=0;exitDx=0;exitDy=27.5;exitPerimeter=0;" edge="1" parent="1" source="MSwfIHUlSuBdwuB2zBwW-42" target="MSwfIHUlSuBdwuB2zBwW-49">
          <mxGeometry relative="1" as="geometry">
            <mxPoint x="1150" y="640" as="sourcePoint" />
          </mxGeometry>
        </mxCell>
        <mxCell id="MSwfIHUlSuBdwuB2zBwW-76" style="edgeStyle=orthogonalEdgeStyle;rounded=0;orthogonalLoop=1;jettySize=auto;html=1;exitX=1;exitY=0;exitDx=0;exitDy=52.5;exitPerimeter=0;entryX=0.5;entryY=1;entryDx=0;entryDy=0;fillColor=#f8cecc;strokeColor=#b85450;dashed=1;" edge="1" parent="1" source="MSwfIHUlSuBdwuB2zBwW-42" target="MSwfIHUlSuBdwuB2zBwW-71">
          <mxGeometry relative="1" as="geometry" />
        </mxCell>
        <mxCell id="MSwfIHUlSuBdwuB2zBwW-42" value="Cleaned prices" style="shape=cylinder3;whiteSpace=wrap;html=1;boundedLbl=1;backgroundOutline=1;size=15;fillColor=#fff2cc;strokeColor=#d6b656;" vertex="1" parent="1">
          <mxGeometry x="1070" y="590" width="60" height="80" as="geometry" />
        </mxCell>
        <mxCell id="MSwfIHUlSuBdwuB2zBwW-43" style="edgeStyle=orthogonalEdgeStyle;rounded=0;orthogonalLoop=1;jettySize=auto;html=1;exitX=0.5;exitY=0;exitDx=0;exitDy=0;entryX=0.5;entryY=1;entryDx=0;entryDy=0;entryPerimeter=0;fillColor=#fff2cc;strokeColor=#d6b656;dashed=1;" edge="1" parent="1" source="MSwfIHUlSuBdwuB2zBwW-69" target="MSwfIHUlSuBdwuB2zBwW-41">
          <mxGeometry relative="1" as="geometry" />
        </mxCell>
        <mxCell id="MSwfIHUlSuBdwuB2zBwW-44" style="edgeStyle=orthogonalEdgeStyle;rounded=0;orthogonalLoop=1;jettySize=auto;html=1;exitX=0.5;exitY=1;exitDx=0;exitDy=0;entryX=0.5;entryY=0;entryDx=0;entryDy=0;entryPerimeter=0;fillColor=#fff2cc;strokeColor=#d6b656;dashed=1;" edge="1" parent="1" source="MSwfIHUlSuBdwuB2zBwW-69" target="MSwfIHUlSuBdwuB2zBwW-42">
          <mxGeometry relative="1" as="geometry" />
        </mxCell>
        <mxCell id="MSwfIHUlSuBdwuB2zBwW-45" style="edgeStyle=orthogonalEdgeStyle;rounded=0;orthogonalLoop=1;jettySize=auto;html=1;exitX=0.5;exitY=1;exitDx=0;exitDy=0;exitPerimeter=0;entryX=0.5;entryY=1;entryDx=0;entryDy=0;entryPerimeter=0;endArrow=none;endFill=0;dashed=1;dashPattern=8 8;fillColor=#d5e8d4;strokeColor=#82b366;" edge="1" parent="1" source="MSwfIHUlSuBdwuB2zBwW-20" target="MSwfIHUlSuBdwuB2zBwW-42">
          <mxGeometry relative="1" as="geometry" />
        </mxCell>
        <mxCell id="MSwfIHUlSuBdwuB2zBwW-47" value="Logically the same DB, but different collections" style="edgeLabel;html=1;align=center;verticalAlign=middle;resizable=0;points=[];" vertex="1" connectable="0" parent="MSwfIHUlSuBdwuB2zBwW-45">
          <mxGeometry x="-0.0209" y="-1" relative="1" as="geometry">
            <mxPoint as="offset" />
          </mxGeometry>
        </mxCell>
        <mxCell id="MSwfIHUlSuBdwuB2zBwW-46" style="edgeStyle=orthogonalEdgeStyle;rounded=0;orthogonalLoop=1;jettySize=auto;html=1;exitX=0.5;exitY=0;exitDx=0;exitDy=0;exitPerimeter=0;entryX=0.5;entryY=0;entryDx=0;entryDy=0;entryPerimeter=0;endArrow=none;endFill=0;dashed=1;dashPattern=8 8;fillColor=#d5e8d4;strokeColor=#82b366;" edge="1" parent="1" source="MSwfIHUlSuBdwuB2zBwW-8" target="MSwfIHUlSuBdwuB2zBwW-41">
          <mxGeometry relative="1" as="geometry" />
        </mxCell>
        <mxCell id="MSwfIHUlSuBdwuB2zBwW-48" value="Logically the same DB, but different collections" style="edgeLabel;html=1;align=center;verticalAlign=middle;resizable=0;points=[];" vertex="1" connectable="0" parent="MSwfIHUlSuBdwuB2zBwW-46">
          <mxGeometry x="-0.3067" y="-1" relative="1" as="geometry">
            <mxPoint x="76" as="offset" />
          </mxGeometry>
        </mxCell>
        <mxCell id="MSwfIHUlSuBdwuB2zBwW-65" value="" style="edgeStyle=orthogonalEdgeStyle;rounded=0;orthogonalLoop=1;jettySize=auto;html=1;fillColor=#f8cecc;strokeColor=#b85450;" edge="1" parent="1" source="MSwfIHUlSuBdwuB2zBwW-49" target="MSwfIHUlSuBdwuB2zBwW-64">
          <mxGeometry relative="1" as="geometry" />
        </mxCell>
        <mxCell id="MSwfIHUlSuBdwuB2zBwW-49" value="Create and train model" style="rounded=1;whiteSpace=wrap;html=1;fillColor=#f8cecc;strokeColor=#b85450;" vertex="1" parent="1">
          <mxGeometry x="1200" y="400" width="120" height="60" as="geometry" />
        </mxCell>
        <mxCell id="MSwfIHUlSuBdwuB2zBwW-72" value="" style="edgeStyle=orthogonalEdgeStyle;rounded=0;orthogonalLoop=1;jettySize=auto;html=1;fillColor=#f8cecc;strokeColor=#b85450;" edge="1" parent="1" source="MSwfIHUlSuBdwuB2zBwW-64" target="MSwfIHUlSuBdwuB2zBwW-71">
          <mxGeometry relative="1" as="geometry" />
        </mxCell>
        <mxCell id="MSwfIHUlSuBdwuB2zBwW-64" value="Save model" style="whiteSpace=wrap;html=1;fillColor=#f8cecc;strokeColor=#b85450;rounded=1;" vertex="1" parent="1">
          <mxGeometry x="1400" y="400" width="120" height="60" as="geometry" />
        </mxCell>
        <mxCell id="MSwfIHUlSuBdwuB2zBwW-74" style="edgeStyle=orthogonalEdgeStyle;rounded=0;orthogonalLoop=1;jettySize=auto;html=1;exitX=0;exitY=0;exitDx=120;exitDy=50;exitPerimeter=0;entryX=0.25;entryY=1;entryDx=0;entryDy=0;fillColor=#f8cecc;strokeColor=#b85450;dashed=1;" edge="1" parent="1" source="MSwfIHUlSuBdwuB2zBwW-66" target="MSwfIHUlSuBdwuB2zBwW-71">
          <mxGeometry relative="1" as="geometry" />
        </mxCell>
        <mxCell id="MSwfIHUlSuBdwuB2zBwW-66" value="Trained model" style="shape=cube;whiteSpace=wrap;html=1;boundedLbl=1;backgroundOutline=1;darkOpacity=0.05;darkOpacity2=0.1;fillColor=#f8cecc;strokeColor=#b85450;" vertex="1" parent="1">
          <mxGeometry x="1400" y="510" width="120" height="80" as="geometry" />
        </mxCell>
        <mxCell id="MSwfIHUlSuBdwuB2zBwW-67" style="edgeStyle=orthogonalEdgeStyle;rounded=0;orthogonalLoop=1;jettySize=auto;html=1;exitX=0.5;exitY=1;exitDx=0;exitDy=0;entryX=0.502;entryY=0.016;entryDx=0;entryDy=0;entryPerimeter=0;fillColor=#f8cecc;strokeColor=#b85450;dashed=1;" edge="1" parent="1" source="MSwfIHUlSuBdwuB2zBwW-64" target="MSwfIHUlSuBdwuB2zBwW-66">
          <mxGeometry relative="1" as="geometry" />
        </mxCell>
        <mxCell id="MSwfIHUlSuBdwuB2zBwW-93" value="" style="edgeStyle=orthogonalEdgeStyle;rounded=0;orthogonalLoop=1;jettySize=auto;html=1;fillColor=#ffe6cc;strokeColor=#d79b00;" edge="1" parent="1" source="MSwfIHUlSuBdwuB2zBwW-69" target="MSwfIHUlSuBdwuB2zBwW-49">
          <mxGeometry relative="1" as="geometry" />
        </mxCell>
        <mxCell id="MSwfIHUlSuBdwuB2zBwW-69" value="Create training/test sets" style="whiteSpace=wrap;html=1;fillColor=#ffe6cc;strokeColor=#d79b00;rounded=1;" vertex="1" parent="1">
          <mxGeometry x="1040" y="400" width="120" height="60" as="geometry" />
        </mxCell>
        <mxCell id="MSwfIHUlSuBdwuB2zBwW-78" value="" style="edgeStyle=orthogonalEdgeStyle;rounded=0;orthogonalLoop=1;jettySize=auto;html=1;fillColor=#f8cecc;strokeColor=#b85450;" edge="1" parent="1" source="MSwfIHUlSuBdwuB2zBwW-71" target="MSwfIHUlSuBdwuB2zBwW-77">
          <mxGeometry relative="1" as="geometry" />
        </mxCell>
        <mxCell id="MSwfIHUlSuBdwuB2zBwW-71" value="Load and run model" style="whiteSpace=wrap;html=1;fillColor=#ffcccc;strokeColor=#36393d;rounded=1;" vertex="1" parent="1">
          <mxGeometry x="1600" y="400" width="120" height="60" as="geometry" />
        </mxCell>
        <mxCell id="MSwfIHUlSuBdwuB2zBwW-75" style="edgeStyle=orthogonalEdgeStyle;rounded=0;orthogonalLoop=1;jettySize=auto;html=1;exitX=1;exitY=0;exitDx=0;exitDy=27.5;exitPerimeter=0;entryX=0.445;entryY=0.013;entryDx=0;entryDy=0;entryPerimeter=0;fillColor=#f8cecc;strokeColor=#b85450;dashed=1;" edge="1" parent="1" source="MSwfIHUlSuBdwuB2zBwW-41" target="MSwfIHUlSuBdwuB2zBwW-71">
          <mxGeometry relative="1" as="geometry" />
        </mxCell>
        <mxCell id="MSwfIHUlSuBdwuB2zBwW-80" value="" style="edgeStyle=orthogonalEdgeStyle;rounded=0;orthogonalLoop=1;jettySize=auto;html=1;fillColor=#cce5ff;strokeColor=#70B5FF;" edge="1" parent="1" source="MSwfIHUlSuBdwuB2zBwW-77" target="MSwfIHUlSuBdwuB2zBwW-79">
          <mxGeometry relative="1" as="geometry" />
        </mxCell>
        <mxCell id="MSwfIHUlSuBdwuB2zBwW-77" value="Save results" style="whiteSpace=wrap;html=1;fillColor=#CCE5FF;strokeColor=#36393d;rounded=1;" vertex="1" parent="1">
          <mxGeometry x="1800" y="400" width="120" height="60" as="geometry" />
        </mxCell>
        <mxCell id="MSwfIHUlSuBdwuB2zBwW-83" value="" style="edgeStyle=orthogonalEdgeStyle;rounded=0;orthogonalLoop=1;jettySize=auto;html=1;fillColor=#cce5ff;strokeColor=#70B5FF;dashed=1;" edge="1" parent="1" source="MSwfIHUlSuBdwuB2zBwW-79" target="MSwfIHUlSuBdwuB2zBwW-81">
          <mxGeometry relative="1" as="geometry" />
        </mxCell>
        <mxCell id="MSwfIHUlSuBdwuB2zBwW-79" value="Display results" style="whiteSpace=wrap;html=1;fillColor=#cce5ff;strokeColor=#36393d;rounded=1;" vertex="1" parent="1">
          <mxGeometry x="2000" y="400" width="120" height="60" as="geometry" />
        </mxCell>
        <mxCell id="MSwfIHUlSuBdwuB2zBwW-81" value="Jupyter/&lt;br&gt;dashboard" style="shape=parallelogram;perimeter=parallelogramPerimeter;whiteSpace=wrap;html=1;fixedSize=1;fillColor=#cce5ff;strokeColor=#36393d;" vertex="1" parent="1">
          <mxGeometry x="2000" y="510" width="120" height="60" as="geometry" />
        </mxCell>
        <mxCell id="MSwfIHUlSuBdwuB2zBwW-90" style="edgeStyle=orthogonalEdgeStyle;rounded=0;orthogonalLoop=1;jettySize=auto;html=1;exitX=1;exitY=0.5;exitDx=0;exitDy=0;exitPerimeter=0;entryX=0.25;entryY=0;entryDx=0;entryDy=0;fillColor=#cce5ff;strokeColor=#70B5FF;dashed=1;" edge="1" parent="1" source="MSwfIHUlSuBdwuB2zBwW-86" target="MSwfIHUlSuBdwuB2zBwW-79">
          <mxGeometry relative="1" as="geometry" />
        </mxCell>
        <mxCell id="MSwfIHUlSuBdwuB2zBwW-86" value="Results" style="shape=cylinder3;whiteSpace=wrap;html=1;boundedLbl=1;backgroundOutline=1;size=15;fillColor=#cce5ff;strokeColor=#36393d;" vertex="1" parent="1">
          <mxGeometry x="1830" y="200" width="60" height="80" as="geometry" />
        </mxCell>
        <mxCell id="MSwfIHUlSuBdwuB2zBwW-89" style="edgeStyle=orthogonalEdgeStyle;rounded=0;orthogonalLoop=1;jettySize=auto;html=1;exitX=0.5;exitY=0;exitDx=0;exitDy=0;entryX=0.5;entryY=1;entryDx=0;entryDy=0;entryPerimeter=0;dashed=1;fillColor=#cce5ff;strokeColor=#70B5FF;" edge="1" parent="1" source="MSwfIHUlSuBdwuB2zBwW-77" target="MSwfIHUlSuBdwuB2zBwW-86">
          <mxGeometry relative="1" as="geometry" />
        </mxCell>
      </root>
    </mxGraphModel>
  </diagram>
</mxfile>
